<svg width="84" height="84" viewBox="0 0 84 84" fill="none" xmlns="http://www.w3.org/2000/svg">
<circle cx="42" cy="42" r="42" fill="#73D5C6"/>
<path d="M40.8096 23.7722L22.9276 54.7446C22.3332 55.7742 23.076 57.0604 24.264 57.0604H60.0287C61.2167 57.0604 61.9595 55.7742 61.3651 54.7446L43.4832 23.7722C42.8888 22.7426 41.404 22.7426 40.8096 23.7722Z" fill="white"/>
<path d="M42.1754 52.4226C43.0292 52.4226 43.7213 51.7305 43.7213 50.8767C43.7213 50.0229 43.0292 49.3308 42.1754 49.3308C41.3216 49.3308 40.6295 50.0229 40.6295 50.8767C40.6295 51.7305 41.3216 52.4226 42.1754 52.4226Z" fill="#73D5C6"/>
<path d="M41.2417 47.0122L40.0823 36.9639C39.9485 35.8076 40.7779 34.7626 41.9342 34.6289C43.0905 34.4952 44.1356 35.3245 44.2693 36.4809C44.2878 36.6409 44.2863 36.8101 44.2693 36.9639L43.1099 47.0122C43.0503 47.5277 42.5843 47.8979 42.0679 47.8384C41.6258 47.7874 41.2904 47.4365 41.2417 47.0122Z" fill="#73D5C6"/>
</svg>
