<?xml version="1.0" encoding="UTF-8" standalone="no"?>
<!-- Created with Inkscape (http://www.inkscape.org/) -->

<svg
   xmlns:dc="http://purl.org/dc/elements/1.1/"
   xmlns:cc="http://creativecommons.org/ns#"
   xmlns:rdf="http://www.w3.org/1999/02/22-rdf-syntax-ns#"
   xmlns:svg="http://www.w3.org/2000/svg"
   xmlns="http://www.w3.org/2000/svg"
   xmlns:sodipodi="http://sodipodi.sourceforge.net/DTD/sodipodi-0.dtd"
   xmlns:inkscape="http://www.inkscape.org/namespaces/inkscape"
   width="90.102249mm"
   height="74.043335mm"
   viewBox="0 0 319.25994 262.35827"
   id="svg2"
   version="1.1"
   inkscape:version="0.91 r13725"
   sodipodi:docname="school desk with underside shelf.svg">
  <defs
     id="defs4">
    <clipPath
       id="clipEmfPath1"
       clipPathUnits="userSpaceOnUse">
      <path
         inkscape:connector-curvature="0"
         id="path4141"
         d="m 6.25143,7.50172 357.58157,0 0,241.30528 -357.58157,0 z" />
    </clipPath>
    <pattern
       y="0"
       x="0"
       height="6"
       width="6"
       patternUnits="userSpaceOnUse"
       id="EMFhbasepattern" />
    <clipPath
       id="clipEmfPath1-6"
       clipPathUnits="userSpaceOnUse">
      <path
         inkscape:connector-curvature="0"
         id="path4222"
         d="m 6.25143,7.50172 348.82957,0 0,246.30628 -348.82957,0 z" />
    </clipPath>
    <pattern
       y="0"
       x="0"
       height="6"
       width="6"
       patternUnits="userSpaceOnUse"
       id="EMFhbasepattern-8" />
  </defs>
  <sodipodi:namedview
     id="base"
     pagecolor="#ffffff"
     bordercolor="#666666"
     borderopacity="1.0"
     inkscape:pageopacity="0.0"
     inkscape:pageshadow="2"
     inkscape:zoom="0.35"
     inkscape:cx="149.50479"
     inkscape:cy="150.42024"
     inkscape:document-units="px"
     inkscape:current-layer="layer1"
     showgrid="false"
     fit-margin-top="0"
     fit-margin-left="0"
     fit-margin-right="0"
     fit-margin-bottom="0"
     inkscape:window-width="686"
     inkscape:window-height="405"
     inkscape:window-x="524"
     inkscape:window-y="75"
     inkscape:window-maximized="0" />
  <metadata
     id="metadata7">
    <rdf:RDF>
      <cc:Work
         rdf:about="">
        <dc:format>image/svg+xml</dc:format>
        <dc:type
           rdf:resource="http://purl.org/dc/dcmitype/StillImage" />
        <dc:title></dc:title>
      </cc:Work>
    </rdf:RDF>
  </metadata>
  <g
     inkscape:label="Layer 1"
     inkscape:groupmode="layer"
     id="layer1"
     transform="translate(-225.49521,-420.42417)">
    <path
       inkscape:connector-curvature="0"
       id="path4225"
       d="m 274.99041,450.33845 0,172.23108 11.14465,0 0,-172.23108 -11.14465,0 z"
       style="fill:#a6a6a6;fill-opacity:1;fill-rule:evenodd;stroke:none" />
    <path
       inkscape:connector-curvature="0"
       id="path4227"
       d="m 274.99041,450.33845 0,172.23108 11.14465,0 0,-172.23108 z"
       style="fill:none;stroke:#000000;stroke-width:3.39039612px;stroke-linecap:butt;stroke-linejoin:miter;stroke-miterlimit:8;stroke-dasharray:none;stroke-opacity:1" />
    <path
       inkscape:connector-curvature="0"
       id="path4229"
       d="m 285.98937,634.51816 -2.84081,-8.9615 -5.60876,0 -2.84071,8.9615 z"
       style="fill:#a6a6a6;fill-opacity:1;fill-rule:evenodd;stroke:none" />
    <path
       inkscape:connector-curvature="0"
       id="path4231"
       d="m 285.98937,634.51816 -2.84081,-8.9615 -5.60876,0 -2.84071,8.9615 z"
       style="fill:none;stroke:#000000;stroke-width:3.39039612px;stroke-linecap:butt;stroke-linejoin:miter;stroke-miterlimit:8;stroke-dasharray:none;stroke-opacity:1" />
    <path
       inkscape:connector-curvature="0"
       id="path4233"
       d="m 485.71853,450.33845 0,172.23108 11.14474,0 0,-172.23108 -11.14474,0 z"
       style="fill:#a6a6a6;fill-opacity:1;fill-rule:evenodd;stroke:none" />
    <path
       inkscape:connector-curvature="0"
       id="path4235"
       d="m 485.71853,450.33845 0,172.23108 11.14474,0 0,-172.23108 z"
       style="fill:none;stroke:#000000;stroke-width:3.39039612px;stroke-linecap:butt;stroke-linejoin:miter;stroke-miterlimit:8;stroke-dasharray:none;stroke-opacity:1" />
    <path
       inkscape:connector-curvature="0"
       id="path4237"
       d="m 497.00867,634.51816 -2.84117,-8.9615 -5.60873,0 -2.84024,8.9615 z"
       style="fill:#a6a6a6;fill-opacity:1;fill-rule:evenodd;stroke:none" />
    <path
       inkscape:connector-curvature="0"
       id="path4239"
       d="m 497.00867,634.51816 -2.84117,-8.9615 -5.60873,0 -2.84024,8.9615 z"
       style="fill:none;stroke:#000000;stroke-width:3.39039612px;stroke-linecap:butt;stroke-linejoin:miter;stroke-miterlimit:8;stroke-dasharray:none;stroke-opacity:1" />
    <path
       inkscape:connector-curvature="0"
       id="path4241"
       d="m 253.50246,462.45779 0,204.57727 13.257,0 0,-204.57727 -13.257,0 z"
       style="fill:#a6a6a6;fill-opacity:1;fill-rule:evenodd;stroke:none" />
    <path
       inkscape:connector-curvature="0"
       id="path4243"
       d="m 253.50246,462.45779 0,204.57727 13.257,0 0,-204.57727 z"
       style="fill:none;stroke:#000000;stroke-width:3.39039612px;stroke-linecap:butt;stroke-linejoin:miter;stroke-miterlimit:8;stroke-dasharray:none;stroke-opacity:1" />
    <path
       inkscape:connector-curvature="0"
       id="path4245"
       d="m 266.75946,680.94744 -3.4964,-11.09561 -7.06549,0 -3.49639,11.09561 z"
       style="fill:#a6a6a6;fill-opacity:1;fill-rule:evenodd;stroke:none" />
    <path
       transform="matrix(0.93214649,0,0,1.0921972,216.13521,408.68892)"
       inkscape:connector-curvature="0"
       id="path4247"
       d="m 54.3093,249.276 -3.7509,-10.159 -7.5798,0 -3.7509,10.159 z"
       clip-path="url(#clipEmfPath1-6)"
       style="fill:none;stroke:#000000;stroke-width:3.36014342px;stroke-linecap:butt;stroke-linejoin:miter;stroke-miterlimit:8;stroke-dasharray:none;stroke-opacity:1" />
    <path
       inkscape:connector-curvature="0"
       id="path4249"
       d="m 503.85528,462.45779 0,204.57727 13.257,0 0,-204.57727 -13.257,0 z"
       style="fill:#a6a6a6;fill-opacity:1;fill-rule:evenodd;stroke:none" />
    <path
       inkscape:connector-curvature="0"
       id="path4251"
       d="m 503.85528,462.45779 0,204.57727 13.257,0 0,-204.57727 z"
       style="fill:none;stroke:#000000;stroke-width:3.39039612px;stroke-linecap:butt;stroke-linejoin:miter;stroke-miterlimit:8;stroke-dasharray:none;stroke-opacity:1" />
    <path
       inkscape:connector-curvature="0"
       id="path4253"
       d="m 517.91392,680.94744 -3.49649,-11.09561 -7.06566,0 -3.49649,11.09561 z"
       style="fill:#a6a6a6;fill-opacity:1;fill-rule:evenodd;stroke:none" />
    <path
       transform="matrix(0.93214649,0,0,1.0921972,216.13521,408.68892)"
       inkscape:connector-curvature="0"
       id="path4255"
       d="m 323.746,249.276 -3.751,-10.159 -7.58,0 -3.751,10.159 z"
       clip-path="url(#clipEmfPath1-6)"
       style="fill:none;stroke:#000000;stroke-width:3.36014342px;stroke-linecap:butt;stroke-linejoin:miter;stroke-miterlimit:8;stroke-dasharray:none;stroke-opacity:1" />
    <path
       inkscape:connector-curvature="0"
       id="path4257"
       d="m 243.74178,485.92835 c -2.98643,0 -5.39014,2.90183 -5.39014,6.31571 l 0,25.26287 c 0,3.49916 2.40371,6.31593 5.39014,6.31593 l 284.00535,0 c 2.9866,0 5.3906,-2.81677 5.3906,-6.31593 l 0,-25.26287 c 0,-3.41388 -2.404,-6.31571 -5.3906,-6.31571 z"
       style="fill:#b35e25;fill-opacity:1;fill-rule:evenodd;stroke:none" />
    <path
       inkscape:connector-curvature="0"
       id="path4259"
       d="m 243.74178,485.92835 c -2.98643,0 -5.39014,2.90183 -5.39014,6.31571 l 0,25.26287 c 0,3.49916 2.40371,6.31593 5.39014,6.31593 l 284.00535,0 c 2.9866,0 5.3906,-2.81677 5.3906,-6.31593 l 0,-25.26287 c 0,-3.41388 -2.404,-6.31571 -5.3906,-6.31571 z"
       style="fill:none;stroke:#000000;stroke-width:3.39039612px;stroke-linecap:butt;stroke-linejoin:round;stroke-miterlimit:10;stroke-dasharray:none;stroke-opacity:1" />
    <path
       inkscape:connector-curvature="0"
       id="path4261"
       d="m 231.57743,480.46613 c -2.47659,0 -4.51616,2.38976 -4.51616,5.29147 0,2.98717 2.03957,5.37689 4.51616,5.37689 l 307.0227,0 c 2.5494,0 4.58896,-2.38972 4.58896,-5.37689 0,-2.90171 -2.03956,-5.29147 -4.58896,-5.29147 z"
       style="fill:#fce5d6;fill-opacity:1;fill-rule:evenodd;stroke:none" />
    <path
       transform="matrix(0.93214649,0,0,1.0921972,216.13521,408.68892)"
       inkscape:connector-curvature="0"
       id="path4263"
       d="m 16.5663,65.7182 c -2.6569,0 -4.8449,2.188 -4.8449,4.8448 0,2.735 2.188,4.923 4.8449,4.923 l 329.3717,0 c 2.735,0 4.923,-2.188 4.923,-4.923 0,-2.6568 -2.188,-4.8448 -4.923,-4.8448 z"
       clip-path="url(#clipEmfPath1-6)"
       style="fill:none;stroke:#000000;stroke-width:3.36014342px;stroke-linecap:butt;stroke-linejoin:round;stroke-miterlimit:10;stroke-dasharray:none;stroke-opacity:1" />
    <path
       inkscape:connector-curvature="0"
       id="path4265"
       d="m 542.31564,481.40487 -18.1377,-59.14575 -278.10525,0 -18.21014,59.14575 z"
       style="fill:#f8cbad;fill-opacity:1;fill-rule:evenodd;stroke:none" />
    <path
       transform="matrix(0.93214649,0,0,1.0921972,216.13521,408.68892)"
       inkscape:connector-curvature="0"
       id="path4267"
       d="m 349.924,66.5777 -19.458,-54.153 -298.3493,0 -19.5357,54.153 z"
       clip-path="url(#clipEmfPath1-6)"
       style="fill:none;stroke:#000000;stroke-width:3.36014342px;stroke-linecap:butt;stroke-linejoin:miter;stroke-miterlimit:8;stroke-dasharray:none;stroke-opacity:1" />
    <path
       inkscape:connector-curvature="0"
       id="path4269"
       d="m 263.55444,469.11494 c -1.23825,0 -2.18521,1.10945 -2.18521,2.56031 0,1.36561 0.94696,2.47517 2.18521,2.47517 l 242.26767,0 c 1.23884,0 2.18495,-1.10956 2.18495,-2.47517 0,-1.45086 -0.94611,-2.56031 -2.18495,-2.56031 z"
       style="fill:#f5b183;fill-opacity:1;fill-rule:evenodd;stroke:none" />
    <path
       inkscape:connector-curvature="0"
       id="path4271"
       d="m 263.55444,469.11494 c -1.23825,0 -2.18521,1.10945 -2.18521,2.56031 0,1.36561 0.94696,2.47517 2.18521,2.47517 l 242.26767,0 c 1.23884,0 2.18495,-1.10956 2.18495,-2.47517 0,-1.45086 -0.94611,-2.56031 -2.18495,-2.56031 z"
       style="fill:none;stroke:#000000;stroke-width:3.39039612px;stroke-linecap:butt;stroke-linejoin:round;stroke-miterlimit:10;stroke-dasharray:none;stroke-opacity:1" />
  </g>
</svg>
